<?xml version="1.0" encoding="utf-8"?>
<!-- Generator: Adobe Illustrator 16.0.0, SVG Export Plug-In . SVG Version: 6.00 Build 0)  -->
<!DOCTYPE svg PUBLIC "-//W3C//DTD SVG 1.1//EN" "http://www.w3.org/Graphics/SVG/1.1/DTD/svg11.dtd">
<svg version="1.1" xmlns="http://www.w3.org/2000/svg" xmlns:xlink="http://www.w3.org/1999/xlink" x="0px" y="0px"
	 width="62.641px" height="61.602px" viewBox="0 0 62.641 61.602" enable-background="new 0 0 62.641 61.602" xml:space="preserve">
<g id="레이어_2_1_">
</g>
<g id="레이어_3">
</g>
<g id="레이어_4">
	<g>
		<path fill="#FFFFFF" d="M49.576,2.122H13.065c-5.522,0-10,4.477-10,10v36.089c0,5.521,4.478,10,10,10h36.512
			c5.523,0,10-4.479,10-10V12.122C59.576,6.599,55.1,2.122,49.576,2.122z M50.643,40.517c0,4.818-3.785,8.739-8.438,8.739H20.437
			c-4.653,0-8.438-3.921-8.438-8.739v-20.7c0-4.819,3.786-8.74,8.438-8.74h21.769c4.652,0,8.438,3.92,8.438,8.74V40.517z"/>
		<path fill="#FFFFFF" d="M42.205,15.077H20.437c-2.447,0-4.438,2.126-4.438,4.74v20.7c0,2.613,1.991,4.739,4.438,4.739h21.769
			c2.447,0,4.438-2.126,4.438-4.739v-20.7C46.643,17.203,44.653,15.077,42.205,15.077z M31.321,41.62
			c-5.414,0-9.819-4.404-9.819-9.818s4.405-9.818,9.819-9.818c5.413,0,9.817,4.404,9.817,9.818S36.734,41.62,31.321,41.62z
			 M41.821,21.855c-1.227,0-2.22-0.994-2.22-2.22s0.993-2.22,2.22-2.22s2.22,0.994,2.22,2.22S43.047,21.855,41.821,21.855z"/>
		<path fill="#FFFFFF" d="M31.321,25.984c-3.208,0-5.819,2.61-5.819,5.818s2.61,5.818,5.819,5.818c3.208,0,5.817-2.61,5.817-5.818
			S34.529,25.984,31.321,25.984z"/>
	</g>
</g>
</svg>
